<svg id="Layer_1" data-name="Layer 1" xmlns="http://www.w3.org/2000/svg" width="1538.04" height="986.55" viewBox="0 0 1538.04 986.55"><title>CorkMap_Selected</title><path d="M1525.91,457.91c9.38-40.93-40.36-1.71-49-28.5-6.23-50.59-25-23.49-24.19-50.16-15.4-.65-21.07-11.49-35-21.56-10.62-8.14,2.22-16.27-.36-26.25-11-39.58-30.6-39.13-41.18-51.83-10.94-33.5-43.81-.67-49.83-16.31,1.9-45.47,21.75.13,23.36-60.15.4-2.25,2.46-4.55,6.67-5.07,20.93-39-24.77-17.55-27.59-41.65.84-44.61-20.53-55.81-58.88-55.77-23.78,19.88-29.82-4.62-38.06-24.66-21.9,4-3.21-6.57-22.13-6.4-21.47,3.53-4.23,23.38-22.35,22.25-4.46,1.08-3.51,6.36-8.22,9.83-25.61,3.1-48.87,10.4-77.56,13.89-16.35-.56-17.24-18.45-29.37-26.58-20.59-5.38-23.18-9.84-26.72-26.39-11.5-8.5-9.64-9-12.65-22.76-7.71-3.79,0,7.64-8.53,8.44-15-14-23.84-6.33-20.63-33.36C999,2.33,967.32,36,954,18.74c-33.17-25.22-17.38,3.34-30.78-.42-4.39-24.58-18.92-.66-25.71,6.47-19.4-5-4.82,23.84-26.86,19-14.58,41-44.79,21-71.17,44.68-3.47,11.2-11.27-5-18.35-8.78-10.55-8-20.15-3.45-30.75-14.45C707.28,63.1,713,40.71,700.07,61,657,109.35,652.5,75.3,652.13,114.43c-21.51,9.06-18.31-3.28-23,22.64-27.07,16.09-9,48.25,1.44,70.62,2.46,25.82,18.43,23.75,6.31,49.23,4.15,26.14,20.33,49.44,28.66,73.5C641.39,340,645.06,404,674,387.23c7.65,20.89,14.89,22.51,36.51,22.71,10,1.13-1.66,18.28-9.39,14.6-18.2-.72-71.62,12.32-81.38,25.38-55.48,28.45-1.57,43.07-12.07,77.28-12.52,10.59-19.34,26.65-27.61,38.71C558,574.45,568.4,577.5,544,577.18c-12.7,16.16-26.58,5-32.68,14-3.33,48.08-71,30.08-105.51,35.54-21.75,3.06-29.91,28.09-43,42.36-34,1.63-33,14-51.22,24.69-15.33,20.27-47.61,59.12-39.38,7.45-5.31-9-11.86,2.2-6.05-15.18-9-10.17-11.46-25.16-29.47-16.75-7.54-3.13,8-7.72,2.11-11.33-10.68-12.28-23.59,10.81-36,13.55-29.05,8.44-82.69,38.64-22.82,37-8.27,36.3-13.34,20.62-23.11,23.83-9.62,16.79-14.21,3.68-25.25,8.7-9.44,10.9-17-1.83-30.81,1.29-39.85,23,18.11,23.48,12.75,36.34-4.28,2.83,1.19,12.57-3.39,15.62-19.38-1.58-24.25,16.89-38.58,1.06a368.58,368.58,0,0,1-44.72,20.1C-26,859.91,43.84,833.18,59.17,818c10.72-6,.13,9.93-8.22,21.94.5,5.93,8.81,3.81,12.64-3.93,9.3-12.54,21.3-10.52,35.53-11.46,40.62-15.7,7.18,38.81,75.06-15.71,10.35-1.89,23.38,2.78,31.8-7.07,7.41,6.77,9,6.49,18.58,6.31,2.69,3.56,3.71,7.7,8.68,3.11,70.83-21.25,79.33-48.8,43-33.66-14.17.43-45.1-5-58,5.9-18.41-6,35.18-14.47,42.9-19,51.34,6.32,69-23.35,100.69-20,8.58,22.18,65.81-27.79,85-40.45,6.79-14.66-8.72-8.7,6.57-22.14-3.51-4.06-6.9-11.69,2.51-3.63,2.45,8.16-7.66,14.94,7,15.65,29,30.28,34.78-9.22,37,10.76,8,2.35-.39,11.93-.32,19,2.83,1.12,8.58,3.22,2.89,5.68-7.87,18.93-26.38,12.86-17.85.06,10.07,5,16.41-4.74,3.87-3.47-.22-3.48,4-9.09,0-13.73-10.87,6.25-28.27,14.69-36.48,28-2.66,5.38,45-3.43,18.29,9.24-3.86,7.66-9.35,8.28-18.73,11.78-31.15,4.47-49,28.53-81.63,32.92-40.27,26.6-91.74,52.89-117.73,89.53,36.5,13.15,199.71-96.21,181.67-67.08-20.58,8.09-7.4,9.21-20.81,18.57-10,6.29-14.27,5.78-18.55,16.1-7-.37-14.33,9-19.66,9.66-3.79-7.61-19.27.51-6,2.52,21.1,3-11.2,22.61-19,29.27-13.48,3.76-24.72,2.46-39.13,9.72-40,41.09-33.15,19.92-52.49,40.71.8,7.21,21.59,2.64,15.7,12.8-14.16,37.08,15.24,20.43,28.91,6.46-2.2,28.33-5.74,16.72,46.19-8.3-2.8-21.16-1.9-29.89,23-28.61,14.34-27.11,14-3.1,18.24,8.37,10.39,4.14,12-6.37,19.33,8.17,6.7,1.08,4.27-17.59,10.69-6.38,4.42,8.27,18.57-4.5,26.73-7.94,17.62-13.31-7.77,2.29,5.44-30.62,8.12,1.12-2,10.78,3.75,16.43,13-5.07,25.74-11.57,42.11-12.06-26.35,11-2.88,27.62,19.24-17.07,12.06-11.1,2.92,2,9.76,4,4.32-2.89,17.91-14.48,9.68,3.93-4.58,10.55-15.55,14.6-19.7,24.94-12.79-7.36-38,14.1-9.22,5.31,6.83,1.73-15.25,7.69-3.79,14.87,7.53-5,17.56,11.16,18.42-7.56,5-7.85,5.18,7.41,2.3,13-3.11,3.28-10.09.37-8.86,7.56,7.1,7.2,6.29,4.63-2.35,10.37-16,31.33,23,2.41,31.7-8,6.38,10.19,22.55-3.65,26.62,9.25,5.22,7,4.47-2.33,7.14-8.11,12.09-6.55,21.08-15.52,36-21.15,12-3.91-9.87,18.77,21.42,1.56,1.28,15.9,29.5,11.59,22.66-7.09,1-16.83,28,2.34,18-18-.44-2.21,1.81-9.06,2.77-1.08,19.87,2.53,49.76-14.27,41.74-35.2,21.73,7.77,49.71.93,71-14.76,13.36,5.6,30.07,9.41,27.72,29.39,1.74,29.85,9.66-23.14,22.82-1.92,30.07-11.28,17.54-16.2,20-30.07,15.77-10.24,13.72-7.95,16.7-24.93,11.82-14-1,3.85,20.64,0,32.11-2.6,23.63,14.34,46.74,8.61-3.79,16.51,2.07,15.62,33.36,12.62,16.74-16-12.08-19.38,17.6-36.42,2.27-1.52,2.07-2.75-2.63-5.36-18.83-7.78,12.14-21.66-5.44-26.19-15.4-3.37,10-11.13,12.42-8,6.92,26,39.67,3.06,59.59,5.09,13.5,4,3.58,12.86,9.57,18.84,7.82.24,9.93,6,10.43,14.71,9.4,10,19.73-.51,6.23-10.56-2.55-5.91,11.47-9.11.87-15.37-15.68-11.69,6.13-22.91,7.52-38.63,14.14-14,14.29-6.31,8.76-25.94,9.89-9.46,1.62,28.16,18.43,23.31,32.44-26.49,18.2-2,34.43-16.5,2.92-17.4,5.51-12,19.7-12.32,8.5-7.41,13.77-16.47,29.94-12.42,14-3.46-1.26-21.08,22.78-16.92,32.71-62.7-18-22.58,23.67-64.51,5.74-10.09-2.78-22.6-6.67-29.33-3.22-3-12,7.38-9.15-2.36,3.69-27.17.73,2.26,14.08-9.43,6.59-7.12-19-7.55-4.64-8.92,14.3.87,7.29-27.4,14.79-1.09,5-.11,3.18-14.43,7.14,0,10,3.64-.91-10.67,8.06-12.37,6.84-2.62,33.92-6.39,26.59,3.34-25.17,15.64-30.43,6.25-45.6,38.22,7.11,5.94,7.34,16.35,9.85,23.53,73.35-6.59,31.38,15.12,58.85,5.07,10.61-9.42,16.09-22,33.75-20,19,.74,94.55-19.49,56.77-29.39-12.43-33.95,70.93-38.41,87.72-43.18,32.81-9.64-15.07-17.28-15.53-27.18C1507,501,1524.59,480.63,1525.91,457.91ZM487.54,942.17c1.59-12-25.39,3.71-27.85,8-.72,11.21,13.89-1.72,18.84-5.19C482.65,946.12,486.25,948.63,487.54,942.17Zm-5.86-30.46c-.19-5.23-17.19.33-15.37,8C468.72,926.5,477.54,920.38,481.68,911.71Zm230.45-4.94c-6.06-1.21-5.4,8.6,4.11,4.57C718.87,908.67,716.13,905.64,712.13,906.77ZM477.68,926.7c.23-5.47-13.59,2.77-6.75,5.11C472.92,931.49,475.56,930.46,477.68,926.7Zm-83.29,10.55c3.12,2.68,5.17,4.68,8.43,5.44C403.47,936.33,399.74,936.54,394.39,937.25ZM650,961.13c1.17-1.08,6.24-5.74.06-6.59C648.87,955.69,648.27,957.56,650,961.13Z" fill="#e95d4f" stroke="#ee8176" stroke-linecap="round" stroke-linejoin="round" stroke-width="4"/><path d="M1190,581.65c-.12-5.07,2.49-6.51,7.21-5.8,5.58.84,12.93-4.12,15.17-9.27,2.78-6.41,5.07-12.61,1.48-19.51-.54-1,.37-2.82.56-4a22,22,0,0,0-12.19-2.51c-1.17.08-2.37.34-3.64-.62-3.84-2.91-4.75-18.08-1.44-21.68a14.1,14.1,0,0,0,3.37-13.53c-1.72-5.36-.69-8.76,3.09-12.38,2.88-2.77,2.39-6-.67-8.54-11.13-9.06-11.83-11.91-5.76-24.49a17.72,17.72,0,0,0,.8-3.09c-3.61-1.82-3.89-6.86-8.54-8.71a48.2,48.2,0,0,1-23.22,11.59c-7.83,1.37-14.87,2.44-20.42,9.32-2.19,2.72-7.78,3.15-12,3.66-2.61.32-4.67,1.09-5.65,3.1-3.75,7.72-11.64,7.22-18.15,9-1.72.48-6.52.86-6.43-4,0-.72-.36-2-.7-2.08-11.63-1.73-14.89-17.57-29.44-15.59-2.15,2-1.14,8.39-5.22,10.16-3.15,1.35-7.54-.17-11.38-.4-.48,0-1.3-.17-1.39,0-4.62,9.87-12,2-18.43,3-1,3.42-1.68,7.27-3.36,10.61-1.19,2.37-.17,3.74.93,5.06,3.51,4.25,5.75,8.3.71,13a3.3,3.3,0,0,0,0,4.92c2,1.87,3,4.25,4.57,7.06-6.25,3.53-7.8,8.13-5.05,15.46,1.39,3.71.27,9.55-3.18,13.51" fill="#ee8176"/><path d="M1033.82,543.53c12.54.17,23.43,7.52,36,8.17,3.34.18,7.15,3.43,9.72,5.29,6.8,4.91,13.76,5.28,21.23,5.22,10.37-.07,11.51.37,14.3,10.12,2.08,7.3,5.26,13.47,11.55,18,2.86,2.07,5.11,5,7.78,7.64,3.66-2,5.87-5.89,10.27-5.59,2.4.17,3-1.37,3.71-3.53,2.71-8.13,6.39-9.81,15.72-8,2.28.45,4,1.63,6-2,3.48-6.28,6.29-6.07,12.71-1.62a45.3,45.3,0,0,0,5.73,2.91" fill="#ee8176"/></svg>