<svg id="Layer_1" data-name="Layer 1" xmlns="http://www.w3.org/2000/svg"  viewBox="0 0 48 48">
<title>Cork_Icon_Stories</title>
<path d="M35,9.12c-3.9,0-8.1.8-11,3-2.9-2.2-7.1-3-11-3A21.64,21.64,0,0,0,4.44,10.7,4.07,4.07,0,0,0,2,14.4V37a4,4,0,0,0,5,3.88,24.7,24.7,0,0,1,6-.72A21.15,21.15,0,0,1,22.12,42a4.11,4.11,0,0,0,3.74,0A20.86,20.86,0,0,1,35,40.12a24.7,24.7,0,0,1,6,.72A4,4,0,0,0,46,37V14.4a4.07,4.07,0,0,0-2.44-3.7A21.48,21.48,0,0,0,35,9.12Zm7,25.46a2,2,0,0,1-2.4,2,25.22,25.22,0,0,0-4.6-.4,24.09,24.09,0,0,0-11,3v-23a24.09,24.09,0,0,1,11-3,25.37,25.37,0,0,1,5.4.56,2,2,0,0,1,1.6,2Z" />
<path d="M36.64,22.53l1.08,1.08-3.66,3.66-.43-.43-2-2a.75.75,0,0,0-1.06,0L26,29.31a.75.75,0,0,0,1.06,1.05l4-4,2.46,2.47a.75.75,0,0,0,1.06,0l4.2-4.19,1.08,1.08a.37.37,0,0,0,.63-.26V22.26a.35.35,0,0,0-.36-.37H36.91A.38.38,0,0,0,36.64,22.53Z" />
</svg>